<?xml version="1.0" encoding="UTF-8" standalone="no"?>
<!DOCTYPE svg PUBLIC "-//W3C//DTD SVG 1.1//EN"
 "http://www.w3.org/Graphics/SVG/1.1/DTD/svg11.dtd">
<!-- Generated by graphviz version 2.22.2 (20090313.1817)
 -->
<!-- Title: ks Pages: 1 -->
<svg width="421pt" height="792pt"
 viewBox="0.00 0.00 421.10 792.00" xmlns="http://www.w3.org/2000/svg" xmlns:xlink="http://www.w3.org/1999/xlink">
<g id="graph1" class="graph" transform="scale(0.425349 0.425349) rotate(0) translate(4 1858)">
<title>ks</title>
<polygon fill="white" stroke="white" points="-4,5 -4,-1858 987,-1858 987,5 -4,5"/>
<g id="graph2" class="cluster"><title>cluster6793</title>
<polygon fill="none" stroke="black" points="27,-16 27,-738 501,-738 501,-16 27,-16"/>
<text text-anchor="middle" x="264" y="-721.4" font-family="Times Roman,serif" font-size="14.00">Column Family: Standard2</text>
</g>
<g id="graph5" class="cluster"><title>cluster6811</title>
<polygon fill="none" stroke="black" points="8,-746 8,-1846 974,-1846 974,-746 8,-746"/>
<text text-anchor="middle" x="491" y="-1829.4" font-family="Times Roman,serif" font-size="14.00">Column Family: Super2</text>
</g>
<!-- KEYSLICE6794 -->
<g id="node2" class="node"><title>KEYSLICE6794</title>
<ellipse fill="none" stroke="black" cx="64" cy="-420" rx="29.0571" ry="18"/>
<text text-anchor="middle" x="64" y="-414.4" font-family="Times Roman,serif" font-size="14.00">user1</text>
</g>
<!-- COLUMN6795 -->
<g id="node3" class="node"><title>COLUMN6795</title>
<polygon fill="none" stroke="black" points="414.5,-132 414.5,-168 489.5,-168 489.5,-132 414.5,-132"/>
<text text-anchor="middle" x="440.5" y="-144.4" font-family="Times Roman,serif" font-size="14.00">eighth</text>
<polyline fill="none" stroke="black" points="466.5,-132 466.5,-168 "/>
<text text-anchor="middle" x="478" y="-144.4" font-family="Times Roman,serif" font-size="14.00">8</text>
</g>
<!-- KEYSLICE6794&#45;&gt;COLUMN6795 -->
<g id="edge3" class="edge"><title>KEYSLICE6794&#45;&gt;COLUMN6795</title>
<path fill="none" stroke="black" d="M81.9187,-405.581C131.074,-366.354 272.848,-255.4 400,-177 402.159,-175.669 404.391,-174.34 406.661,-173.027"/>
<polygon fill="black" stroke="black" points="408.515,-176.001 415.533,-168.064 405.097,-169.892 408.515,-176.001"/>
</g>
<!-- COLUMN6796 -->
<g id="node5" class="node"><title>COLUMN6796</title>
<polygon fill="none" stroke="black" points="420.5,-186 420.5,-222 483.5,-222 483.5,-186 420.5,-186"/>
<text text-anchor="middle" x="440.5" y="-198.4" font-family="Times Roman,serif" font-size="14.00">fifth</text>
<polyline fill="none" stroke="black" points="460.5,-186 460.5,-222 "/>
<text text-anchor="middle" x="472" y="-198.4" font-family="Times Roman,serif" font-size="14.00">5</text>
</g>
<!-- KEYSLICE6794&#45;&gt;COLUMN6796 -->
<g id="edge5" class="edge"><title>KEYSLICE6794&#45;&gt;COLUMN6796</title>
<path fill="none" stroke="black" d="M85.481,-407.587C138.541,-376.998 280.191,-295.777 400,-231 403.674,-229.013 407.508,-226.969 411.355,-224.938"/>
<polygon fill="black" stroke="black" points="413.058,-227.997 420.287,-220.252 409.806,-221.798 413.058,-227.997"/>
</g>
<!-- COLUMN6797 -->
<g id="node7" class="node"><title>COLUMN6797</title>
<polygon fill="none" stroke="black" points="421,-240 421,-276 483,-276 483,-240 421,-240"/>
<text text-anchor="middle" x="440.5" y="-252.4" font-family="Times Roman,serif" font-size="14.00">first</text>
<polyline fill="none" stroke="black" points="460,-240 460,-276 "/>
<text text-anchor="middle" x="471.5" y="-252.4" font-family="Times Roman,serif" font-size="14.00">1</text>
</g>
<!-- KEYSLICE6794&#45;&gt;COLUMN6797 -->
<g id="edge7" class="edge"><title>KEYSLICE6794&#45;&gt;COLUMN6797</title>
<path fill="none" stroke="black" d="M88.2711,-409.866C153.156,-382.775 331.149,-308.459 411.59,-274.872"/>
<polygon fill="black" stroke="black" points="413.022,-278.067 420.902,-270.984 410.325,-271.608 413.022,-278.067"/>
</g>
<!-- COLUMN6798 -->
<g id="node9" class="node"><title>COLUMN6798</title>
<polygon fill="none" stroke="black" points="415.5,-294 415.5,-330 488.5,-330 488.5,-294 415.5,-294"/>
<text text-anchor="middle" x="440.5" y="-306.4" font-family="Times Roman,serif" font-size="14.00">fourth</text>
<polyline fill="none" stroke="black" points="465.5,-294 465.5,-330 "/>
<text text-anchor="middle" x="477" y="-306.4" font-family="Times Roman,serif" font-size="14.00">4</text>
</g>
<!-- KEYSLICE6794&#45;&gt;COLUMN6798 -->
<g id="edge9" class="edge"><title>KEYSLICE6794&#45;&gt;COLUMN6798</title>
<path fill="none" stroke="black" d="M90.6688,-412.577C155.836,-394.437 323.803,-347.684 405.711,-324.885"/>
<polygon fill="black" stroke="black" points="406.801,-328.214 415.497,-322.161 404.924,-321.471 406.801,-328.214"/>
</g>
<!-- COLUMN6799 -->
<g id="node11" class="node"><title>COLUMN6799</title>
<polygon fill="none" stroke="black" points="418,-348 418,-384 486,-384 486,-348 418,-348"/>
<text text-anchor="middle" x="440.5" y="-360.4" font-family="Times Roman,serif" font-size="14.00">ninth</text>
<polyline fill="none" stroke="black" points="463,-348 463,-384 "/>
<text text-anchor="middle" x="474.5" y="-360.4" font-family="Times Roman,serif" font-size="14.00">9</text>
</g>
<!-- KEYSLICE6794&#45;&gt;COLUMN6799 -->
<g id="edge11" class="edge"><title>KEYSLICE6794&#45;&gt;COLUMN6799</title>
<path fill="none" stroke="black" d="M92.5306,-416.029C159.526,-406.705 327.292,-383.356 407.688,-372.167"/>
<polygon fill="black" stroke="black" points="408.549,-375.581 417.971,-370.736 407.584,-368.648 408.549,-375.581"/>
</g>
<!-- COLUMN6800 -->
<g id="node13" class="node"><title>COLUMN6800</title>
<polygon fill="none" stroke="black" points="422,-402 422,-438 482,-438 482,-402 422,-402"/>
<text text-anchor="middle" x="440.5" y="-414.4" font-family="Times Roman,serif" font-size="14.00">one</text>
<polyline fill="none" stroke="black" points="459,-402 459,-438 "/>
<text text-anchor="middle" x="470.5" y="-414.4" font-family="Times Roman,serif" font-size="14.00">2</text>
</g>
<!-- KEYSLICE6794&#45;&gt;COLUMN6800 -->
<g id="edge13" class="edge"><title>KEYSLICE6794&#45;&gt;COLUMN6800</title>
<path fill="none" stroke="black" d="M93.1631,-420C161.67,-420 332.989,-420 411.52,-420"/>
<polygon fill="black" stroke="black" points="411.965,-423.5 421.965,-420 411.965,-416.5 411.965,-423.5"/>
</g>
<!-- COLUMN6801 -->
<g id="node15" class="node"><title>COLUMN6801</title>
<polygon fill="none" stroke="black" points="412,-456 412,-492 492,-492 492,-456 412,-456"/>
<text text-anchor="middle" x="440.5" y="-468.4" font-family="Times Roman,serif" font-size="14.00">second</text>
<polyline fill="none" stroke="black" points="469,-456 469,-492 "/>
<text text-anchor="middle" x="480.5" y="-468.4" font-family="Times Roman,serif" font-size="14.00">2</text>
</g>
<!-- KEYSLICE6794&#45;&gt;COLUMN6801 -->
<g id="edge15" class="edge"><title>KEYSLICE6794&#45;&gt;COLUMN6801</title>
<path fill="none" stroke="black" d="M92.5306,-423.971C157.9,-433.069 319.21,-455.519 401.684,-466.997"/>
<polygon fill="black" stroke="black" points="401.433,-470.496 411.82,-468.408 402.398,-463.563 401.433,-470.496"/>
</g>
<!-- COLUMN6802 -->
<g id="node17" class="node"><title>COLUMN6802</title>
<polygon fill="none" stroke="black" points="411,-510 411,-546 493,-546 493,-510 411,-510"/>
<text text-anchor="middle" x="440.5" y="-522.4" font-family="Times Roman,serif" font-size="14.00">seventh</text>
<polyline fill="none" stroke="black" points="470,-510 470,-546 "/>
<text text-anchor="middle" x="481.5" y="-522.4" font-family="Times Roman,serif" font-size="14.00">7</text>
</g>
<!-- KEYSLICE6794&#45;&gt;COLUMN6802 -->
<g id="edge17" class="edge"><title>KEYSLICE6794&#45;&gt;COLUMN6802</title>
<path fill="none" stroke="black" d="M90.6688,-427.423C154.668,-445.238 317.817,-490.65 401.226,-513.867"/>
<polygon fill="black" stroke="black" points="400.418,-517.275 410.991,-516.585 402.295,-510.532 400.418,-517.275"/>
</g>
<!-- COLUMN6803 -->
<g id="node19" class="node"><title>COLUMN6803</title>
<polygon fill="none" stroke="black" points="419,-564 419,-600 485,-600 485,-564 419,-564"/>
<text text-anchor="middle" x="440.5" y="-576.4" font-family="Times Roman,serif" font-size="14.00">sixth</text>
<polyline fill="none" stroke="black" points="462,-564 462,-600 "/>
<text text-anchor="middle" x="473.5" y="-576.4" font-family="Times Roman,serif" font-size="14.00">6</text>
</g>
<!-- KEYSLICE6794&#45;&gt;COLUMN6803 -->
<g id="edge19" class="edge"><title>KEYSLICE6794&#45;&gt;COLUMN6803</title>
<path fill="none" stroke="black" d="M88.2711,-430.134C152.598,-456.992 328.096,-530.267 409.493,-564.252"/>
<polygon fill="black" stroke="black" points="408.362,-567.573 418.939,-568.196 411.06,-561.113 408.362,-567.573"/>
</g>
<!-- COLUMN6804 -->
<g id="node21" class="node"><title>COLUMN6804</title>
<polygon fill="none" stroke="black" points="419,-618 419,-654 485,-654 485,-618 419,-618"/>
<text text-anchor="middle" x="440.5" y="-630.4" font-family="Times Roman,serif" font-size="14.00">third</text>
<polyline fill="none" stroke="black" points="462,-618 462,-654 "/>
<text text-anchor="middle" x="473.5" y="-630.4" font-family="Times Roman,serif" font-size="14.00">3</text>
</g>
<!-- KEYSLICE6794&#45;&gt;COLUMN6804 -->
<g id="edge21" class="edge"><title>KEYSLICE6794&#45;&gt;COLUMN6804</title>
<path fill="none" stroke="black" d="M85.481,-432.413C138.541,-463.002 280.191,-544.223 400,-609 403.232,-610.748 406.588,-612.54 409.968,-614.329"/>
<polygon fill="black" stroke="black" points="408.422,-617.471 418.902,-619.026 411.679,-611.274 408.422,-617.471"/>
</g>
<!-- COLUMN6805 -->
<g id="node23" class="node"><title>COLUMN6805</title>
<polygon fill="none" stroke="black" points="414.5,-672 414.5,-708 489.5,-708 489.5,-672 414.5,-672"/>
<text text-anchor="middle" x="440.5" y="-684.4" font-family="Times Roman,serif" font-size="14.00">zeroth</text>
<polyline fill="none" stroke="black" points="466.5,-672 466.5,-708 "/>
<text text-anchor="middle" x="478" y="-684.4" font-family="Times Roman,serif" font-size="14.00">0</text>
</g>
<!-- KEYSLICE6794&#45;&gt;COLUMN6805 -->
<g id="edge23" class="edge"><title>KEYSLICE6794&#45;&gt;COLUMN6805</title>
<path fill="none" stroke="black" d="M81.9187,-434.419C131.074,-473.646 272.848,-584.6 400,-663 402.159,-664.331 404.391,-665.66 406.661,-666.973"/>
<polygon fill="black" stroke="black" points="405.097,-670.108 415.533,-671.936 408.515,-663.999 405.097,-670.108"/>
</g>
<!-- KEYSLICE6806 -->
<g id="node25" class="node"><title>KEYSLICE6806</title>
<ellipse fill="none" stroke="black" cx="64" cy="-69" rx="29.0571" ry="18"/>
<text text-anchor="middle" x="64" y="-63.4" font-family="Times Roman,serif" font-size="14.00">user3</text>
</g>
<!-- COLUMN6807 -->
<g id="node26" class="node"><title>COLUMN6807</title>
<polygon fill="none" stroke="black" points="413.5,-24 413.5,-60 490.5,-60 490.5,-24 413.5,-24"/>
<text text-anchor="middle" x="435" y="-36.4" font-family="Times Roman,serif" font-size="14.00">ALL</text>
<polyline fill="none" stroke="black" points="456.5,-24 456.5,-60 "/>
<text text-anchor="middle" x="473.5" y="-36.4" font-family="Times Roman,serif" font-size="14.00">ice</text>
</g>
<!-- KEYSLICE6806&#45;&gt;COLUMN6807 -->
<g id="edge25" class="edge"><title>KEYSLICE6806&#45;&gt;COLUMN6807</title>
<path fill="none" stroke="black" d="M92.8461,-66.9927C158.867,-62.3984 321.554,-51.0775 403.367,-45.3843"/>
<polygon fill="black" stroke="black" points="403.674,-48.8715 413.406,-44.6856 403.188,-41.8884 403.674,-48.8715"/>
</g>
<!-- COLUMN6808 -->
<g id="node28" class="node"><title>COLUMN6808</title>
<polygon fill="none" stroke="black" points="416,-78 416,-114 488,-114 488,-78 416,-78"/>
<text text-anchor="middle" x="435.5" y="-90.4" font-family="Times Roman,serif" font-size="14.00">WE</text>
<polyline fill="none" stroke="black" points="455,-78 455,-114 "/>
<text text-anchor="middle" x="471.5" y="-90.4" font-family="Times Roman,serif" font-size="14.00">for</text>
</g>
<!-- KEYSLICE6806&#45;&gt;COLUMN6808 -->
<g id="edge27" class="edge"><title>KEYSLICE6806&#45;&gt;COLUMN6808</title>
<path fill="none" stroke="black" d="M92.8461,-71.0073C159.405,-75.639 324.211,-87.1074 405.35,-92.7537"/>
<polygon fill="black" stroke="black" points="405.538,-96.2752 415.757,-93.4779 406.024,-89.2921 405.538,-96.2752"/>
</g>
<!-- KEYSLICE6812 -->
<g id="node33" class="node"><title>KEYSLICE6812</title>
<ellipse fill="none" stroke="black" cx="64" cy="-1663" rx="29.0571" ry="18"/>
<text text-anchor="middle" x="64" y="-1657.4" font-family="Times Roman,serif" font-size="14.00">user1</text>
</g>
<!-- SUPERCOLUMN6813 -->
<g id="node34" class="node"><title>SUPERCOLUMN6813</title>
<ellipse fill="none" stroke="black" cx="452" cy="-1609" rx="34.2387" ry="18"/>
<text text-anchor="middle" x="452" y="-1603.4" font-family="Times Roman,serif" font-size="14.00">scoops</text>
</g>
<!-- KEYSLICE6812&#45;&gt;SUPERCOLUMN6813 -->
<g id="edge38" class="edge"><title>KEYSLICE6812&#45;&gt;SUPERCOLUMN6813</title>
<path fill="none" stroke="black" d="M92.5306,-1659.03C159.693,-1649.68 328.131,-1626.24 408.289,-1615.08"/>
<polygon fill="black" stroke="black" points="409.113,-1618.5 418.535,-1613.66 408.148,-1611.57 409.113,-1618.5"/>
</g>
<!-- SUPERCOLUMN6817 -->
<g id="node42" class="node"><title>SUPERCOLUMN6817</title>
<ellipse fill="none" stroke="black" cx="452" cy="-1717" rx="30.9521" ry="18"/>
<text text-anchor="middle" x="452" y="-1711.4" font-family="Times Roman,serif" font-size="14.00">slices</text>
</g>
<!-- KEYSLICE6812&#45;&gt;SUPERCOLUMN6817 -->
<g id="edge46" class="edge"><title>KEYSLICE6812&#45;&gt;SUPERCOLUMN6817</title>
<path fill="none" stroke="black" d="M92.5306,-1666.97C160.698,-1676.46 333.194,-1700.47 411.827,-1711.41"/>
<polygon fill="black" stroke="black" points="411.446,-1714.89 421.833,-1712.8 412.411,-1707.96 411.446,-1714.89"/>
</g>
<!-- COLUMN6814 -->
<g id="node35" class="node"><title>COLUMN6814</title>
<polygon fill="none" stroke="black" points="815,-1510 815,-1546 943,-1546 943,-1510 815,-1510"/>
<text text-anchor="middle" x="867.5" y="-1522.4" font-family="Times Roman,serif" font-size="14.00">CHOCOLADE</text>
<polyline fill="none" stroke="black" points="920,-1510 920,-1546 "/>
<text text-anchor="middle" x="931.5" y="-1522.4" font-family="Times Roman,serif" font-size="14.00">2</text>
</g>
<!-- SUPERCOLUMN6813&#45;&gt;COLUMN6814 -->
<g id="edge32" class="edge"><title>SUPERCOLUMN6813&#45;&gt;COLUMN6814</title>
<path fill="none" stroke="black" d="M484.445,-1602.85C552.234,-1589.99 710.388,-1559.98 804.587,-1542.12"/>
<polygon fill="black" stroke="black" points="805.449,-1545.51 814.621,-1540.21 804.144,-1538.64 805.449,-1545.51"/>
</g>
<!-- COLUMN6815 -->
<g id="node37" class="node"><title>COLUMN6815</title>
<polygon fill="none" stroke="black" points="792,-1564 792,-1600 966,-1600 966,-1564 792,-1564"/>
<text text-anchor="middle" x="861" y="-1576.4" font-family="Times Roman,serif" font-size="14.00">RIESLING&#45;SORBET</text>
<polyline fill="none" stroke="black" points="930,-1564 930,-1600 "/>
<text text-anchor="middle" x="948" y="-1576.4" font-family="Times Roman,serif" font-size="14.00">900</text>
</g>
<!-- SUPERCOLUMN6813&#45;&gt;COLUMN6815 -->
<g id="edge34" class="edge"><title>SUPERCOLUMN6813&#45;&gt;COLUMN6815</title>
<path fill="none" stroke="black" d="M486.582,-1606.81C550.085,-1602.8 687.388,-1594.12 781.503,-1588.16"/>
<polygon fill="black" stroke="black" points="781.855,-1591.65 791.614,-1587.53 781.413,-1584.66 781.855,-1591.65"/>
</g>
<!-- COLUMN6816 -->
<g id="node39" class="node"><title>COLUMN6816</title>
<polygon fill="none" stroke="black" points="823,-1618 823,-1654 935,-1654 935,-1618 823,-1618"/>
<text text-anchor="middle" x="861" y="-1630.4" font-family="Times Roman,serif" font-size="14.00">VANILLE</text>
<polyline fill="none" stroke="black" points="899,-1618 899,-1654 "/>
<text text-anchor="middle" x="917" y="-1630.4" font-family="Times Roman,serif" font-size="14.00">100</text>
</g>
<!-- SUPERCOLUMN6813&#45;&gt;COLUMN6816 -->
<g id="edge36" class="edge"><title>SUPERCOLUMN6813&#45;&gt;COLUMN6816</title>
<path fill="none" stroke="black" d="M486.582,-1611.19C557.579,-1615.68 720.826,-1626 812.83,-1631.82"/>
<polygon fill="black" stroke="black" points="812.667,-1635.31 822.868,-1632.45 813.109,-1628.33 812.667,-1635.31"/>
</g>
<!-- COLUMN6818 -->
<g id="node43" class="node"><title>COLUMN6818</title>
<polygon fill="none" stroke="black" points="837.5,-1672 837.5,-1708 920.5,-1708 920.5,-1672 837.5,-1672"/>
<text text-anchor="middle" x="867.5" y="-1684.4" font-family="Times Roman,serif" font-size="14.00">APFEL</text>
<polyline fill="none" stroke="black" points="897.5,-1672 897.5,-1708 "/>
<text text-anchor="middle" x="909" y="-1684.4" font-family="Times Roman,serif" font-size="14.00">2</text>
</g>
<!-- SUPERCOLUMN6817&#45;&gt;COLUMN6818 -->
<g id="edge40" class="edge"><title>SUPERCOLUMN6817&#45;&gt;COLUMN6818</title>
<path fill="none" stroke="black" d="M483.053,-1715.04C555.695,-1710.44 737.332,-1698.96 827.106,-1693.28"/>
<polygon fill="black" stroke="black" points="827.565,-1696.76 837.325,-1692.64 827.124,-1689.77 827.565,-1696.76"/>
</g>
<!-- COLUMN6819 -->
<g id="node45" class="node"><title>COLUMN6819</title>
<polygon fill="none" stroke="black" points="817,-1726 817,-1762 941,-1762 941,-1726 817,-1726"/>
<text text-anchor="middle" x="867.5" y="-1738.4" font-family="Times Roman,serif" font-size="14.00">CHEESCAKE</text>
<polyline fill="none" stroke="black" points="918,-1726 918,-1762 "/>
<text text-anchor="middle" x="929.5" y="-1738.4" font-family="Times Roman,serif" font-size="14.00">2</text>
</g>
<!-- SUPERCOLUMN6817&#45;&gt;COLUMN6819 -->
<g id="edge42" class="edge"><title>SUPERCOLUMN6817&#45;&gt;COLUMN6819</title>
<path fill="none" stroke="black" d="M483.053,-1718.96C550.546,-1723.23 712.132,-1733.45 806.704,-1739.43"/>
<polygon fill="black" stroke="black" points="806.566,-1742.93 816.767,-1740.06 807.008,-1735.94 806.566,-1742.93"/>
</g>
<!-- COLUMN6820 -->
<g id="node47" class="node"><title>COLUMN6820</title>
<polygon fill="none" stroke="black" points="828,-1780 828,-1816 930,-1816 930,-1780 828,-1780"/>
<text text-anchor="middle" x="861" y="-1792.4" font-family="Times Roman,serif" font-size="14.00">LINZER</text>
<polyline fill="none" stroke="black" points="894,-1780 894,-1816 "/>
<text text-anchor="middle" x="912" y="-1792.4" font-family="Times Roman,serif" font-size="14.00">100</text>
</g>
<!-- SUPERCOLUMN6817&#45;&gt;COLUMN6820 -->
<g id="edge44" class="edge"><title>SUPERCOLUMN6817&#45;&gt;COLUMN6820</title>
<path fill="none" stroke="black" d="M481.687,-1722.63C551.029,-1735.79 724.799,-1768.75 817.878,-1786.41"/>
<polygon fill="black" stroke="black" points="817.246,-1789.85 827.723,-1788.27 818.55,-1782.97 817.246,-1789.85"/>
</g>
<!-- KEYSLICE6821 -->
<g id="node50" class="node"><title>KEYSLICE6821</title>
<ellipse fill="none" stroke="black" cx="64" cy="-1352" rx="43.0847" ry="18"/>
<text text-anchor="middle" x="64" y="-1346.4" font-family="Times Roman,serif" font-size="14.00">icecream</text>
</g>
<!-- SUPERCOLUMN6822 -->
<g id="node51" class="node"><title>SUPERCOLUMN6822</title>
<ellipse fill="none" stroke="black" cx="452" cy="-1312" rx="44.2173" ry="18"/>
<text text-anchor="middle" x="452" y="-1306.4" font-family="Times Roman,serif" font-size="14.00">20100701</text>
</g>
<!-- KEYSLICE6821&#45;&gt;SUPERCOLUMN6822 -->
<g id="edge54" class="edge"><title>KEYSLICE6821&#45;&gt;SUPERCOLUMN6822</title>
<path fill="none" stroke="black" d="M106.261,-1347.64C177.502,-1340.3 321.32,-1325.47 399.131,-1317.45"/>
<polygon fill="black" stroke="black" points="399.612,-1320.92 409.2,-1316.41 398.894,-1313.96 399.612,-1320.92"/>
</g>
<!-- SUPERCOLUMN6826 -->
<g id="node59" class="node"><title>SUPERCOLUMN6826</title>
<ellipse fill="none" stroke="black" cx="452" cy="-1393" rx="44.2173" ry="18"/>
<text text-anchor="middle" x="452" y="-1387.4" font-family="Times Roman,serif" font-size="14.00">20100702</text>
</g>
<!-- KEYSLICE6821&#45;&gt;SUPERCOLUMN6826 -->
<g id="edge62" class="edge"><title>KEYSLICE6821&#45;&gt;SUPERCOLUMN6826</title>
<path fill="none" stroke="black" d="M106.261,-1356.47C177.502,-1363.99 321.32,-1379.19 399.131,-1387.41"/>
<polygon fill="black" stroke="black" points="398.888,-1390.91 409.2,-1388.48 399.623,-1383.95 398.888,-1390.91"/>
</g>
<!-- COLUMN6823 -->
<g id="node52" class="node"><title>COLUMN6823</title>
<polygon fill="none" stroke="black" points="815,-1186 815,-1222 943,-1222 943,-1186 815,-1186"/>
<text text-anchor="middle" x="867.5" y="-1198.4" font-family="Times Roman,serif" font-size="14.00">CHOCOLADE</text>
<polyline fill="none" stroke="black" points="920,-1186 920,-1222 "/>
<text text-anchor="middle" x="931.5" y="-1198.4" font-family="Times Roman,serif" font-size="14.00">2</text>
</g>
<!-- SUPERCOLUMN6822&#45;&gt;COLUMN6823 -->
<g id="edge48" class="edge"><title>SUPERCOLUMN6822&#45;&gt;COLUMN6823</title>
<path fill="none" stroke="black" d="M489.519,-1302.51C559.912,-1284.71 712.955,-1246 804.847,-1222.76"/>
<polygon fill="black" stroke="black" points="805.804,-1226.12 814.641,-1220.28 804.088,-1219.34 805.804,-1226.12"/>
</g>
<!-- COLUMN6824 -->
<g id="node54" class="node"><title>COLUMN6824</title>
<polygon fill="none" stroke="black" points="792,-1240 792,-1276 966,-1276 966,-1240 792,-1240"/>
<text text-anchor="middle" x="861" y="-1252.4" font-family="Times Roman,serif" font-size="14.00">RIESLING&#45;SORBET</text>
<polyline fill="none" stroke="black" points="930,-1240 930,-1276 "/>
<text text-anchor="middle" x="948" y="-1252.4" font-family="Times Roman,serif" font-size="14.00">900</text>
</g>
<!-- SUPERCOLUMN6822&#45;&gt;COLUMN6824 -->
<g id="edge50" class="edge"><title>SUPERCOLUMN6822&#45;&gt;COLUMN6824</title>
<path fill="none" stroke="black" d="M494.111,-1306.67C560.528,-1298.28 691.351,-1281.73 781.916,-1270.28"/>
<polygon fill="black" stroke="black" points="782.444,-1273.74 791.926,-1269.01 781.566,-1266.79 782.444,-1273.74"/>
</g>
<!-- COLUMN6825 -->
<g id="node56" class="node"><title>COLUMN6825</title>
<polygon fill="none" stroke="black" points="823,-1294 823,-1330 935,-1330 935,-1294 823,-1294"/>
<text text-anchor="middle" x="861" y="-1306.4" font-family="Times Roman,serif" font-size="14.00">VANILLE</text>
<polyline fill="none" stroke="black" points="899,-1294 899,-1330 "/>
<text text-anchor="middle" x="917" y="-1306.4" font-family="Times Roman,serif" font-size="14.00">100</text>
</g>
<!-- SUPERCOLUMN6822&#45;&gt;COLUMN6825 -->
<g id="edge52" class="edge"><title>SUPERCOLUMN6822&#45;&gt;COLUMN6825</title>
<path fill="none" stroke="black" d="M496.088,-1312C571.208,-1312 724.422,-1312 812.571,-1312"/>
<polygon fill="black" stroke="black" points="812.726,-1315.5 822.726,-1312 812.726,-1308.5 812.726,-1315.5"/>
</g>
<!-- COLUMN6827 -->
<g id="node60" class="node"><title>COLUMN6827</title>
<polygon fill="none" stroke="black" points="808.5,-1348 808.5,-1384 949.5,-1384 949.5,-1348 808.5,-1348"/>
<text text-anchor="middle" x="861" y="-1360.4" font-family="Times Roman,serif" font-size="14.00">CHOCOLADE</text>
<polyline fill="none" stroke="black" points="913.5,-1348 913.5,-1384 "/>
<text text-anchor="middle" x="931.5" y="-1360.4" font-family="Times Roman,serif" font-size="14.00">200</text>
</g>
<!-- SUPERCOLUMN6826&#45;&gt;COLUMN6827 -->
<g id="edge56" class="edge"><title>SUPERCOLUMN6826&#45;&gt;COLUMN6827</title>
<path fill="none" stroke="black" d="M495.69,-1390.24C566.709,-1385.75 708.275,-1376.8 798.068,-1371.12"/>
<polygon fill="black" stroke="black" points="798.453,-1374.6 808.212,-1370.48 798.011,-1367.61 798.453,-1374.6"/>
</g>
<!-- COLUMN6828 -->
<g id="node62" class="node"><title>COLUMN6828</title>
<polygon fill="none" stroke="black" points="792,-1402 792,-1438 966,-1438 966,-1402 792,-1402"/>
<text text-anchor="middle" x="861" y="-1414.4" font-family="Times Roman,serif" font-size="14.00">RIESLING&#45;SORBET</text>
<polyline fill="none" stroke="black" points="930,-1402 930,-1438 "/>
<text text-anchor="middle" x="948" y="-1414.4" font-family="Times Roman,serif" font-size="14.00">100</text>
</g>
<!-- SUPERCOLUMN6826&#45;&gt;COLUMN6828 -->
<g id="edge58" class="edge"><title>SUPERCOLUMN6826&#45;&gt;COLUMN6828</title>
<path fill="none" stroke="black" d="M495.69,-1395.76C562.514,-1399.99 691.795,-1408.16 781.637,-1413.84"/>
<polygon fill="black" stroke="black" points="781.641,-1417.35 791.842,-1414.49 782.083,-1410.36 781.641,-1417.35"/>
</g>
<!-- COLUMN6829 -->
<g id="node64" class="node"><title>COLUMN6829</title>
<polygon fill="none" stroke="black" points="823,-1456 823,-1492 935,-1492 935,-1456 823,-1456"/>
<text text-anchor="middle" x="861" y="-1468.4" font-family="Times Roman,serif" font-size="14.00">VANILLE</text>
<polyline fill="none" stroke="black" points="899,-1456 899,-1492 "/>
<text text-anchor="middle" x="917" y="-1468.4" font-family="Times Roman,serif" font-size="14.00">100</text>
</g>
<!-- SUPERCOLUMN6826&#45;&gt;COLUMN6829 -->
<g id="edge60" class="edge"><title>SUPERCOLUMN6826&#45;&gt;COLUMN6829</title>
<path fill="none" stroke="black" d="M492.171,-1400.62C565.836,-1414.59 723.183,-1444.44 812.846,-1461.45"/>
<polygon fill="black" stroke="black" points="812.425,-1464.93 822.902,-1463.36 813.73,-1458.06 812.425,-1464.93"/>
</g>
<!-- KEYSLICE6830 -->
<g id="node67" class="node"><title>KEYSLICE6830</title>
<ellipse fill="none" stroke="black" cx="64" cy="-1015" rx="27" ry="18"/>
<text text-anchor="middle" x="64" y="-1009.4" font-family="Times Roman,serif" font-size="14.00">cake</text>
</g>
<!-- SUPERCOLUMN6831 -->
<g id="node68" class="node"><title>SUPERCOLUMN6831</title>
<ellipse fill="none" stroke="black" cx="452" cy="-961" rx="44.2173" ry="18"/>
<text text-anchor="middle" x="452" y="-955.4" font-family="Times Roman,serif" font-size="14.00">20100701</text>
</g>
<!-- KEYSLICE6830&#45;&gt;SUPERCOLUMN6831 -->
<g id="edge70" class="edge"><title>KEYSLICE6830&#45;&gt;SUPERCOLUMN6831</title>
<path fill="none" stroke="black" d="M90.6688,-1011.29C154.357,-1002.42 316.231,-979.896 400.002,-968.237"/>
<polygon fill="black" stroke="black" points="400.642,-971.682 410.064,-966.836 399.677,-964.748 400.642,-971.682"/>
</g>
<!-- SUPERCOLUMN6835 -->
<g id="node76" class="node"><title>SUPERCOLUMN6835</title>
<ellipse fill="none" stroke="black" cx="452" cy="-1069" rx="44.2173" ry="18"/>
<text text-anchor="middle" x="452" y="-1063.4" font-family="Times Roman,serif" font-size="14.00">20100702</text>
</g>
<!-- KEYSLICE6830&#45;&gt;SUPERCOLUMN6835 -->
<g id="edge78" class="edge"><title>KEYSLICE6830&#45;&gt;SUPERCOLUMN6835</title>
<path fill="none" stroke="black" d="M90.6688,-1018.71C154.357,-1027.58 316.231,-1050.1 400.002,-1061.76"/>
<polygon fill="black" stroke="black" points="399.677,-1065.25 410.064,-1063.16 400.642,-1058.32 399.677,-1065.25"/>
</g>
<!-- COLUMN6832 -->
<g id="node69" class="node"><title>COLUMN6832</title>
<polygon fill="none" stroke="black" points="837.5,-862 837.5,-898 920.5,-898 920.5,-862 837.5,-862"/>
<text text-anchor="middle" x="867.5" y="-874.4" font-family="Times Roman,serif" font-size="14.00">APFEL</text>
<polyline fill="none" stroke="black" points="897.5,-862 897.5,-898 "/>
<text text-anchor="middle" x="909" y="-874.4" font-family="Times Roman,serif" font-size="14.00">2</text>
</g>
<!-- SUPERCOLUMN6831&#45;&gt;COLUMN6832 -->
<g id="edge64" class="edge"><title>SUPERCOLUMN6831&#45;&gt;COLUMN6832</title>
<path fill="none" stroke="black" d="M492.171,-953.38C569.976,-938.621 741.132,-906.153 827.294,-889.808"/>
<polygon fill="black" stroke="black" points="828.196,-893.2 837.368,-887.897 826.891,-886.322 828.196,-893.2"/>
</g>
<!-- COLUMN6833 -->
<g id="node71" class="node"><title>COLUMN6833</title>
<polygon fill="none" stroke="black" points="817,-916 817,-952 941,-952 941,-916 817,-916"/>
<text text-anchor="middle" x="867.5" y="-928.4" font-family="Times Roman,serif" font-size="14.00">CHEESCAKE</text>
<polyline fill="none" stroke="black" points="918,-916 918,-952 "/>
<text text-anchor="middle" x="929.5" y="-928.4" font-family="Times Roman,serif" font-size="14.00">2</text>
</g>
<!-- SUPERCOLUMN6831&#45;&gt;COLUMN6833 -->
<g id="edge66" class="edge"><title>SUPERCOLUMN6831&#45;&gt;COLUMN6833</title>
<path fill="none" stroke="black" d="M495.69,-958.237C569.063,-953.598 717.736,-944.197 806.82,-938.564"/>
<polygon fill="black" stroke="black" points="807.088,-942.054 816.847,-937.93 806.646,-935.068 807.088,-942.054"/>
</g>
<!-- COLUMN6834 -->
<g id="node73" class="node"><title>COLUMN6834</title>
<polygon fill="none" stroke="black" points="828,-970 828,-1006 930,-1006 930,-970 828,-970"/>
<text text-anchor="middle" x="861" y="-982.4" font-family="Times Roman,serif" font-size="14.00">LINZER</text>
<polyline fill="none" stroke="black" points="894,-970 894,-1006 "/>
<text text-anchor="middle" x="912" y="-982.4" font-family="Times Roman,serif" font-size="14.00">100</text>
</g>
<!-- SUPERCOLUMN6831&#45;&gt;COLUMN6834 -->
<g id="edge68" class="edge"><title>SUPERCOLUMN6831&#45;&gt;COLUMN6834</title>
<path fill="none" stroke="black" d="M495.69,-963.763C572.158,-968.598 730.411,-978.604 817.764,-984.128"/>
<polygon fill="black" stroke="black" points="817.596,-987.624 827.797,-984.762 818.038,-980.638 817.596,-987.624"/>
</g>
<!-- COLUMN6836 -->
<g id="node77" class="node"><title>COLUMN6836</title>
<polygon fill="none" stroke="black" points="834,-1024 834,-1060 924,-1060 924,-1024 834,-1024"/>
<text text-anchor="middle" x="864" y="-1036.4" font-family="Times Roman,serif" font-size="14.00">APFEL</text>
<polyline fill="none" stroke="black" points="894,-1024 894,-1060 "/>
<text text-anchor="middle" x="909" y="-1036.4" font-family="Times Roman,serif" font-size="14.00">20</text>
</g>
<!-- SUPERCOLUMN6835&#45;&gt;COLUMN6836 -->
<g id="edge72" class="edge"><title>SUPERCOLUMN6835&#45;&gt;COLUMN6836</title>
<path fill="none" stroke="black" d="M495.69,-1066.24C573.918,-1061.29 737.742,-1050.93 823.683,-1045.5"/>
<polygon fill="black" stroke="black" points="824.008,-1048.98 833.767,-1044.86 823.566,-1042 824.008,-1048.98"/>
</g>
<!-- COLUMN6837 -->
<g id="node79" class="node"><title>COLUMN6837</title>
<polygon fill="none" stroke="black" points="810.5,-1078 810.5,-1114 947.5,-1114 947.5,-1078 810.5,-1078"/>
<text text-anchor="middle" x="861" y="-1090.4" font-family="Times Roman,serif" font-size="14.00">CHEESCAKE</text>
<polyline fill="none" stroke="black" points="911.5,-1078 911.5,-1114 "/>
<text text-anchor="middle" x="929.5" y="-1090.4" font-family="Times Roman,serif" font-size="14.00">100</text>
</g>
<!-- SUPERCOLUMN6835&#45;&gt;COLUMN6837 -->
<g id="edge74" class="edge"><title>SUPERCOLUMN6835&#45;&gt;COLUMN6837</title>
<path fill="none" stroke="black" d="M495.69,-1071.76C567.221,-1076.29 710.319,-1085.33 800,-1091"/>
<polygon fill="black" stroke="black" points="799.923,-1094.51 810.124,-1091.64 800.365,-1087.52 799.923,-1094.51"/>
</g>
<!-- COLUMN6838 -->
<g id="node81" class="node"><title>COLUMN6838</title>
<polygon fill="none" stroke="black" points="831,-1132 831,-1168 927,-1168 927,-1132 831,-1132"/>
<text text-anchor="middle" x="864" y="-1144.4" font-family="Times Roman,serif" font-size="14.00">LINZER</text>
<polyline fill="none" stroke="black" points="897,-1132 897,-1168 "/>
<text text-anchor="middle" x="912" y="-1144.4" font-family="Times Roman,serif" font-size="14.00">10</text>
</g>
<!-- SUPERCOLUMN6835&#45;&gt;COLUMN6838 -->
<g id="edge76" class="edge"><title>SUPERCOLUMN6835&#45;&gt;COLUMN6838</title>
<path fill="none" stroke="black" d="M492.171,-1076.62C568.058,-1091.02 732.75,-1122.26 820.77,-1138.95"/>
<polygon fill="black" stroke="black" points="820.377,-1142.44 830.854,-1140.87 821.682,-1135.56 820.377,-1142.44"/>
</g>
<!-- KEYSLICE6839 -->
<g id="node84" class="node"><title>KEYSLICE6839</title>
<ellipse fill="none" stroke="black" cx="64" cy="-799" rx="48.0074" ry="18"/>
<text text-anchor="middle" x="64" y="-793.4" font-family="Times Roman,serif" font-size="14.00">superuser1</text>
</g>
<!-- SUPERCOLUMN6840 -->
<g id="node85" class="node"><title>SUPERCOLUMN6840</title>
<ellipse fill="none" stroke="black" cx="452" cy="-772" rx="51.7974" ry="18"/>
<text text-anchor="middle" x="452" y="-766.4" font-family="Times Roman,serif" font-size="14.00">collection1</text>
</g>
<!-- KEYSLICE6839&#45;&gt;SUPERCOLUMN6840 -->
<g id="edge82" class="edge"><title>KEYSLICE6839&#45;&gt;SUPERCOLUMN6840</title>
<path fill="none" stroke="black" d="M111.576,-795.689C181.876,-790.797 313.504,-781.638 390.87,-776.254"/>
<polygon fill="black" stroke="black" points="391.219,-779.738 400.952,-775.552 390.733,-772.755 391.219,-779.738"/>
</g>
<!-- SUPERCOLUMN6842 -->
<g id="node89" class="node"><title>SUPERCOLUMN6842</title>
<ellipse fill="none" stroke="black" cx="452" cy="-826" rx="51.7974" ry="18"/>
<text text-anchor="middle" x="452" y="-820.4" font-family="Times Roman,serif" font-size="14.00">collection2</text>
</g>
<!-- KEYSLICE6839&#45;&gt;SUPERCOLUMN6842 -->
<g id="edge86" class="edge"><title>KEYSLICE6839&#45;&gt;SUPERCOLUMN6842</title>
<path fill="none" stroke="black" d="M111.576,-802.311C181.876,-807.203 313.504,-816.362 390.87,-821.746"/>
<polygon fill="black" stroke="black" points="390.733,-825.245 400.952,-822.448 391.219,-818.262 390.733,-825.245"/>
</g>
<!-- COLUMN6841 -->
<g id="node86" class="node"><title>COLUMN6841</title>
<polygon fill="none" stroke="black" points="848,-754 848,-790 910,-790 910,-754 848,-754"/>
<text text-anchor="middle" x="867.5" y="-766.4" font-family="Times Roman,serif" font-size="14.00">first</text>
<polyline fill="none" stroke="black" points="887,-754 887,-790 "/>
<text text-anchor="middle" x="898.5" y="-766.4" font-family="Times Roman,serif" font-size="14.00">1</text>
</g>
<!-- SUPERCOLUMN6840&#45;&gt;COLUMN6841 -->
<g id="edge80" class="edge"><title>SUPERCOLUMN6840&#45;&gt;COLUMN6841</title>
<path fill="none" stroke="black" d="M504.359,-772C590.181,-772 759.056,-772 837.337,-772"/>
<polygon fill="black" stroke="black" points="837.764,-775.5 847.764,-772 837.764,-768.5 837.764,-775.5"/>
</g>
<!-- COLUMN6843 -->
<g id="node90" class="node"><title>COLUMN6843</title>
<polygon fill="none" stroke="black" points="808.5,-808 808.5,-844 949.5,-844 949.5,-808 808.5,-808"/>
<text text-anchor="middle" x="837" y="-820.4" font-family="Times Roman,serif" font-size="14.00">second</text>
<polyline fill="none" stroke="black" points="865.5,-808 865.5,-844 "/>
<text text-anchor="middle" x="907.5" y="-820.4" font-family="Times Roman,serif" font-size="14.00">0123456789</text>
</g>
<!-- SUPERCOLUMN6842&#45;&gt;COLUMN6843 -->
<g id="edge84" class="edge"><title>SUPERCOLUMN6842&#45;&gt;COLUMN6843</title>
<path fill="none" stroke="black" d="M504.359,-826C577.835,-826 712.188,-826 798.447,-826"/>
<polygon fill="black" stroke="black" points="798.46,-829.5 808.46,-826 798.46,-822.5 798.46,-829.5"/>
</g>
</g>
</svg>
