<?xml version="1.0" encoding="UTF-8" standalone="no"?>
<!DOCTYPE svg PUBLIC "-//W3C//DTD SVG 1.0//EN"
 "http://www.w3.org/TR/2001/REC-SVG-20010904/DTD/svg10.dtd" [
 <!ATTLIST svg xmlns:xlink CDATA #FIXED "http://www.w3.org/1999/xlink">
]>
<!-- Generated by Graphviz version 2.20.2 (Wed Sep 16 11:12:11 UTC 2009)
     For user: (asdf)  -->
<!-- Title: ks Pages: 1 -->
<svg width="792pt" height="81pt"
 viewBox="0.00 0.00 792.00 80.51" xmlns="http://www.w3.org/2000/svg" xmlns:xlink="http://www.w3.org/1999/xlink">
<g id="graph0" class="graph" transform="scale(0.151899 0.151899) rotate(0) translate(4 526)">
<title>ks</title>
<polygon style="fill:white;stroke:white;" points="-4,4 -4,-526 5210,-526 5210,4 -4,4"/>
<!-- KEYSLICE6639 -->
<g id="node2" class="node"><title>KEYSLICE6639</title>
<ellipse style="fill:none;stroke:black;" cx="65" cy="-18" rx="38.2185" ry="18"/>
<text text-anchor="middle" x="65" y="-13.9" style="font-family:Times New Roman;font-size:14.00;">user1</text>
</g>
<!-- COLUMN6640 -->
<g id="node3" class="node"><title>COLUMN6640</title>
<ellipse style="fill:none;stroke:black;" cx="488" cy="-18" rx="70.1831" ry="18"/>
<text text-anchor="middle" x="488" y="-13.9" style="font-family:Times New Roman;font-size:14.00;">{eighth | 8}</text>
</g>
<!-- KEYSLICE6639&#45;&gt;COLUMN6640 -->
<g id="edge3" class="edge"><title>KEYSLICE6639&#45;&gt;COLUMN6640</title>
<path style="fill:none;stroke:black;" d="M103,-18C171,-18 316,-18 408,-18"/>
<polygon style="fill:black;stroke:black;" points="408,-21.5001 418,-18 408,-14.5001 408,-21.5001"/>
</g>
<!-- COLUMN6641 -->
<g id="node5" class="node"><title>COLUMN6641</title>
<ellipse style="fill:none;stroke:black;" cx="948" cy="-18" rx="57.8712" ry="18"/>
<text text-anchor="middle" x="948" y="-13.9" style="font-family:Times New Roman;font-size:14.00;">{fifth | 5}</text>
</g>
<!-- COLUMN6640&#45;&gt;COLUMN6641 -->
<g id="edge5" class="edge"><title>COLUMN6640&#45;&gt;COLUMN6641</title>
<path style="fill:none;stroke:black;" d="M558,-18C645,-18 793,-18 879,-18"/>
<polygon style="fill:black;stroke:black;" points="879,-21.5001 889,-18 879,-14.5001 879,-21.5001"/>
</g>
<!-- COLUMN6642 -->
<g id="node7" class="node"><title>COLUMN6642</title>
<ellipse style="fill:none;stroke:black;" cx="1480" cy="-18" rx="57.8712" ry="18"/>
<text text-anchor="middle" x="1480" y="-13.9" style="font-family:Times New Roman;font-size:14.00;">{first | 1}</text>
</g>
<!-- COLUMN6641&#45;&gt;COLUMN6642 -->
<g id="edge7" class="edge"><title>COLUMN6641&#45;&gt;COLUMN6642</title>
<path style="fill:none;stroke:black;" d="M1007,-18C1106,-18 1306,-18 1411,-18"/>
<polygon style="fill:black;stroke:black;" points="1411,-21.5001 1421,-18 1411,-14.5001 1411,-21.5001"/>
</g>
<!-- COLUMN6643 -->
<g id="node9" class="node"><title>COLUMN6643</title>
<ellipse style="fill:none;stroke:black;" cx="2052" cy="-18" rx="68.7933" ry="18"/>
<text text-anchor="middle" x="2052" y="-13.9" style="font-family:Times New Roman;font-size:14.00;">{fourth | 4}</text>
</g>
<!-- COLUMN6642&#45;&gt;COLUMN6643 -->
<g id="edge9" class="edge"><title>COLUMN6642&#45;&gt;COLUMN6643</title>
<path style="fill:none;stroke:black;" d="M1539,-18C1642,-18 1856,-18 1973,-18"/>
<polygon style="fill:black;stroke:black;" points="1973,-21.5001 1983,-18 1973,-14.5001 1973,-21.5001"/>
</g>
<!-- COLUMN6644 -->
<g id="node11" class="node"><title>COLUMN6644</title>
<ellipse style="fill:none;stroke:black;" cx="2575" cy="-18" rx="64.1231" ry="18"/>
<text text-anchor="middle" x="2575" y="-13.9" style="font-family:Times New Roman;font-size:14.00;">{ninth | 9}</text>
</g>
<!-- COLUMN6643&#45;&gt;COLUMN6644 -->
<g id="edge11" class="edge"><title>COLUMN6643&#45;&gt;COLUMN6644</title>
<path style="fill:none;stroke:black;" d="M2121,-18C2220,-18 2399,-18 2500,-18"/>
<polygon style="fill:black;stroke:black;" points="2500,-21.5001 2510,-18 2500,-14.5001 2500,-21.5001"/>
</g>
<!-- COLUMN6645 -->
<g id="node13" class="node"><title>COLUMN6645</title>
<ellipse style="fill:none;stroke:black;" cx="3013" cy="-18" rx="56.9803" ry="18"/>
<text text-anchor="middle" x="3013" y="-13.9" style="font-family:Times New Roman;font-size:14.00;">{one | 2}</text>
</g>
<!-- COLUMN6644&#45;&gt;COLUMN6645 -->
<g id="edge13" class="edge"><title>COLUMN6644&#45;&gt;COLUMN6645</title>
<path style="fill:none;stroke:black;" d="M2640,-18C2722,-18 2862,-18 2946,-18"/>
<polygon style="fill:black;stroke:black;" points="2946,-21.5001 2956,-18 2946,-14.5001 2946,-21.5001"/>
</g>
<!-- COLUMN6646 -->
<g id="node15" class="node"><title>COLUMN6646</title>
<ellipse style="fill:none;stroke:black;" cx="3431" cy="-18" rx="71.7694" ry="18"/>
<text text-anchor="middle" x="3431" y="-13.9" style="font-family:Times New Roman;font-size:14.00;">{second | 2}</text>
</g>
<!-- COLUMN6645&#45;&gt;COLUMN6646 -->
<g id="edge15" class="edge"><title>COLUMN6645&#45;&gt;COLUMN6646</title>
<path style="fill:none;stroke:black;" d="M3070,-18C3142,-18 3266,-18 3348,-18"/>
<polygon style="fill:black;stroke:black;" points="3348,-21.5001 3358,-18 3348,-14.5001 3348,-21.5001"/>
</g>
<!-- COLUMN6647 -->
<g id="node17" class="node"><title>COLUMN6647</title>
<ellipse style="fill:none;stroke:black;" cx="3870" cy="-18" rx="77.8268" ry="18"/>
<text text-anchor="middle" x="3870" y="-13.9" style="font-family:Times New Roman;font-size:14.00;">{seventh | 7}</text>
</g>
<!-- COLUMN6646&#45;&gt;COLUMN6647 -->
<g id="edge17" class="edge"><title>COLUMN6646&#45;&gt;COLUMN6647</title>
<path style="fill:none;stroke:black;" d="M3504,-18C3581,-18 3700,-18 3782,-18"/>
<polygon style="fill:black;stroke:black;" points="3782,-21.5001 3792,-18 3782,-14.5001 3782,-21.5001"/>
</g>
<!-- COLUMN6648 -->
<g id="node19" class="node"><title>COLUMN6648</title>
<ellipse style="fill:none;stroke:black;" cx="4299" cy="-18" rx="62.0391" ry="18"/>
<text text-anchor="middle" x="4299" y="-13.9" style="font-family:Times New Roman;font-size:14.00;">{sixth | 6}</text>
</g>
<!-- COLUMN6647&#45;&gt;COLUMN6648 -->
<g id="edge19" class="edge"><title>COLUMN6647&#45;&gt;COLUMN6648</title>
<path style="fill:none;stroke:black;" d="M3948,-18C4027,-18 4149,-18 4226,-18"/>
<polygon style="fill:black;stroke:black;" points="4226,-21.5001 4236,-18 4226,-14.5001 4226,-21.5001"/>
</g>
<!-- COLUMN6649 -->
<g id="node21" class="node"><title>COLUMN6649</title>
<ellipse style="fill:none;stroke:black;" cx="4713" cy="-18" rx="62.0391" ry="18"/>
<text text-anchor="middle" x="4713" y="-13.9" style="font-family:Times New Roman;font-size:14.00;">{third | 3}</text>
</g>
<!-- COLUMN6648&#45;&gt;COLUMN6649 -->
<g id="edge21" class="edge"><title>COLUMN6648&#45;&gt;COLUMN6649</title>
<path style="fill:none;stroke:black;" d="M4362,-18C4437,-18 4561,-18 4640,-18"/>
<polygon style="fill:black;stroke:black;" points="4640,-21.5001 4650,-18 4640,-14.5001 4640,-21.5001"/>
</g>
<!-- COLUMN6650 -->
<g id="node23" class="node"><title>COLUMN6650</title>
<ellipse style="fill:none;stroke:black;" cx="5135" cy="-18" rx="70.878" ry="18"/>
<text text-anchor="middle" x="5135" y="-13.9" style="font-family:Times New Roman;font-size:14.00;">{zeroth | 0}</text>
</g>
<!-- COLUMN6649&#45;&gt;COLUMN6650 -->
<g id="edge23" class="edge"><title>COLUMN6649&#45;&gt;COLUMN6650</title>
<path style="fill:none;stroke:black;" d="M4776,-18C4850,-18 4972,-18 5054,-18"/>
<polygon style="fill:black;stroke:black;" points="5054,-21.5001 5064,-18 5054,-14.5001 5054,-21.5001"/>
</g>
<!-- KEYSLICE6651 -->
<g id="node25" class="node"><title>KEYSLICE6651</title>
<ellipse style="fill:none;stroke:black;" cx="65" cy="-72" rx="38.2185" ry="18"/>
<text text-anchor="middle" x="65" y="-67.9" style="font-family:Times New Roman;font-size:14.00;">user3</text>
</g>
<!-- COLUMN6652 -->
<g id="node26" class="node"><title>COLUMN6652</title>
<ellipse style="fill:none;stroke:black;" cx="488" cy="-72" rx="64.1231" ry="18"/>
<text text-anchor="middle" x="488" y="-67.9" style="font-family:Times New Roman;font-size:14.00;">{ALL | ice}</text>
</g>
<!-- KEYSLICE6651&#45;&gt;COLUMN6652 -->
<g id="edge25" class="edge"><title>KEYSLICE6651&#45;&gt;COLUMN6652</title>
<path style="fill:none;stroke:black;" d="M103,-72C173,-72 322,-72 413,-72"/>
<polygon style="fill:black;stroke:black;" points="413,-75.5001 423,-72 413,-68.5001 413,-75.5001"/>
</g>
<!-- COLUMN6653 -->
<g id="node28" class="node"><title>COLUMN6653</title>
<ellipse style="fill:none;stroke:black;" cx="948" cy="-72" rx="62.0391" ry="18"/>
<text text-anchor="middle" x="948" y="-67.9" style="font-family:Times New Roman;font-size:14.00;">{WE | for}</text>
</g>
<!-- COLUMN6652&#45;&gt;COLUMN6653 -->
<g id="edge27" class="edge"><title>COLUMN6652&#45;&gt;COLUMN6653</title>
<path style="fill:none;stroke:black;" d="M553,-72C638,-72 786,-72 875,-72"/>
<polygon style="fill:black;stroke:black;" points="875,-75.5001 885,-72 875,-68.5001 875,-75.5001"/>
</g>
<!-- KEYSLICE6654 -->
<g id="node33" class="node"><title>KEYSLICE6654</title>
<ellipse style="fill:none;stroke:black;" cx="65" cy="-153" rx="38.2185" ry="18"/>
<text text-anchor="middle" x="65" y="-148.9" style="font-family:Times New Roman;font-size:14.00;">user1</text>
</g>
<!-- SUPERCOLUMN6655 -->
<g id="node34" class="node"><title>SUPERCOLUMN6655</title>
<ellipse style="fill:none;stroke:black;" cx="488" cy="-153" rx="41.8891" ry="18"/>
<text text-anchor="middle" x="488" y="-148.9" style="font-family:Times New Roman;font-size:14.00;">scoops</text>
</g>
<!-- KEYSLICE6654&#45;&gt;SUPERCOLUMN6655 -->
<g id="edge38" class="edge"><title>KEYSLICE6654&#45;&gt;SUPERCOLUMN6655</title>
<path style="fill:none;stroke:black;" d="M103,-153C179,-153 349,-153 435,-153"/>
<polygon style="fill:black;stroke:black;" points="435,-156.5 445,-153 435,-149.5 435,-156.5"/>
</g>
<!-- COLUMN6656 -->
<g id="node35" class="node"><title>COLUMN6656</title>
<ellipse style="fill:none;stroke:black;" cx="948" cy="-180" rx="102.148" ry="18"/>
<text text-anchor="middle" x="948" y="-175.9" style="font-family:Times New Roman;font-size:14.00;">{CHOCOLADE | 2}</text>
</g>
<!-- SUPERCOLUMN6655&#45;&gt;COLUMN6656 -->
<g id="edge32" class="edge"><title>SUPERCOLUMN6655&#45;&gt;COLUMN6656</title>
<path style="fill:none;stroke:black;" d="M530,-155C600,-159 742,-167 841,-173"/>
<polygon style="fill:black;stroke:black;" points="840.701,-176.488 851,-174 841.398,-169.522 840.701,-176.488"/>
</g>
<!-- SUPERCOLUMN6659 -->
<g id="node42" class="node"><title>SUPERCOLUMN6659</title>
<ellipse style="fill:none;stroke:black;" cx="948" cy="-126" rx="36.1339" ry="18"/>
<text text-anchor="middle" x="948" y="-121.9" style="font-family:Times New Roman;font-size:14.00;">slices</text>
</g>
<!-- SUPERCOLUMN6655&#45;&gt;SUPERCOLUMN6659 -->
<g id="edge46" class="edge"><title>SUPERCOLUMN6655&#45;&gt;SUPERCOLUMN6659</title>
<path style="fill:none;stroke:black;" d="M530,-151C617,-145 812,-134 902,-129"/>
<polygon style="fill:black;stroke:black;" points="902.398,-132.478 912,-128 901.701,-125.512 902.398,-132.478"/>
</g>
<!-- COLUMN6657 -->
<g id="node37" class="node"><title>COLUMN6657</title>
<ellipse style="fill:none;stroke:black;" cx="1480" cy="-180" rx="141.756" ry="18"/>
<text text-anchor="middle" x="1480" y="-175.9" style="font-family:Times New Roman;font-size:14.00;">{RIESLING&#45;SORBET | 900}</text>
</g>
<!-- COLUMN6656&#45;&gt;COLUMN6657 -->
<g id="edge34" class="edge"><title>COLUMN6656&#45;&gt;COLUMN6657</title>
<path style="fill:none;stroke:black;" d="M1050,-180C1129,-180 1239,-180 1328,-180"/>
<polygon style="fill:black;stroke:black;" points="1328,-183.5 1338,-180 1328,-176.5 1328,-183.5"/>
</g>
<!-- COLUMN6658 -->
<g id="node39" class="node"><title>COLUMN6658</title>
<ellipse style="fill:none;stroke:black;" cx="2052" cy="-180" rx="93.1142" ry="18"/>
<text text-anchor="middle" x="2052" y="-175.9" style="font-family:Times New Roman;font-size:14.00;">{VANILLE | 100}</text>
</g>
<!-- COLUMN6657&#45;&gt;COLUMN6658 -->
<g id="edge36" class="edge"><title>COLUMN6657&#45;&gt;COLUMN6658</title>
<path style="fill:none;stroke:black;" d="M1622,-180C1723,-180 1857,-180 1949,-180"/>
<polygon style="fill:black;stroke:black;" points="1949,-183.5 1959,-180 1949,-176.5 1949,-183.5"/>
</g>
<!-- COLUMN6660 -->
<g id="node43" class="node"><title>COLUMN6660</title>
<ellipse style="fill:none;stroke:black;" cx="1480" cy="-126" rx="70.1831" ry="18"/>
<text text-anchor="middle" x="1480" y="-121.9" style="font-family:Times New Roman;font-size:14.00;">{APFEL | 2}</text>
</g>
<!-- SUPERCOLUMN6659&#45;&gt;COLUMN6660 -->
<g id="edge40" class="edge"><title>SUPERCOLUMN6659&#45;&gt;COLUMN6660</title>
<path style="fill:none;stroke:black;" d="M984,-126C1070,-126 1282,-126 1400,-126"/>
<polygon style="fill:black;stroke:black;" points="1400,-129.5 1410,-126 1400,-122.5 1400,-129.5"/>
</g>
<!-- COLUMN6661 -->
<g id="node45" class="node"><title>COLUMN6661</title>
<ellipse style="fill:none;stroke:black;" cx="2052" cy="-126" rx="97.9784" ry="18"/>
<text text-anchor="middle" x="2052" y="-121.9" style="font-family:Times New Roman;font-size:14.00;">{CHEESCAKE | 2}</text>
</g>
<!-- COLUMN6660&#45;&gt;COLUMN6661 -->
<g id="edge42" class="edge"><title>COLUMN6660&#45;&gt;COLUMN6661</title>
<path style="fill:none;stroke:black;" d="M1550,-126C1648,-126 1828,-126 1944,-126"/>
<polygon style="fill:black;stroke:black;" points="1944,-129.5 1954,-126 1944,-122.5 1944,-129.5"/>
</g>
<!-- COLUMN6662 -->
<g id="node47" class="node"><title>COLUMN6662</title>
<ellipse style="fill:none;stroke:black;" cx="2575" cy="-126" rx="87.0549" ry="18"/>
<text text-anchor="middle" x="2575" y="-121.9" style="font-family:Times New Roman;font-size:14.00;">{LINZER | 100}</text>
</g>
<!-- COLUMN6661&#45;&gt;COLUMN6662 -->
<g id="edge44" class="edge"><title>COLUMN6661&#45;&gt;COLUMN6662</title>
<path style="fill:none;stroke:black;" d="M2150,-126C2244,-126 2384,-126 2477,-126"/>
<polygon style="fill:black;stroke:black;" points="2477,-129.5 2487,-126 2477,-122.5 2477,-129.5"/>
</g>
<!-- KEYSLICE6663 -->
<g id="node50" class="node"><title>KEYSLICE6663</title>
<ellipse style="fill:none;stroke:black;" cx="65" cy="-261" rx="53.0059" ry="18"/>
<text text-anchor="middle" x="65" y="-256.9" style="font-family:Times New Roman;font-size:14.00;">icecream</text>
</g>
<!-- SUPERCOLUMN6664 -->
<g id="node51" class="node"><title>SUPERCOLUMN6664</title>
<ellipse style="fill:none;stroke:black;" cx="488" cy="-261" rx="61.1496" ry="18"/>
<text text-anchor="middle" x="488" y="-256.9" style="font-family:Times New Roman;font-size:14.00;">20100701</text>
</g>
<!-- KEYSLICE6663&#45;&gt;SUPERCOLUMN6664 -->
<g id="edge54" class="edge"><title>KEYSLICE6663&#45;&gt;SUPERCOLUMN6664</title>
<path style="fill:none;stroke:black;" d="M119,-261C194,-261 333,-261 417,-261"/>
<polygon style="fill:black;stroke:black;" points="417,-264.5 427,-261 417,-257.5 417,-264.5"/>
</g>
<!-- COLUMN6665 -->
<g id="node52" class="node"><title>COLUMN6665</title>
<ellipse style="fill:none;stroke:black;" cx="948" cy="-288" rx="102.148" ry="18"/>
<text text-anchor="middle" x="948" y="-283.9" style="font-family:Times New Roman;font-size:14.00;">{CHOCOLADE | 2}</text>
</g>
<!-- SUPERCOLUMN6664&#45;&gt;COLUMN6665 -->
<g id="edge48" class="edge"><title>SUPERCOLUMN6664&#45;&gt;COLUMN6665</title>
<path style="fill:none;stroke:black;" d="M548,-265C622,-269 749,-276 841,-281"/>
<polygon style="fill:black;stroke:black;" points="840.701,-284.488 851,-282 841.398,-277.522 840.701,-284.488"/>
</g>
<!-- SUPERCOLUMN6668 -->
<g id="node59" class="node"><title>SUPERCOLUMN6668</title>
<ellipse style="fill:none;stroke:black;" cx="948" cy="-234" rx="61.1496" ry="18"/>
<text text-anchor="middle" x="948" y="-229.9" style="font-family:Times New Roman;font-size:14.00;">20100702</text>
</g>
<!-- SUPERCOLUMN6664&#45;&gt;SUPERCOLUMN6668 -->
<g id="edge62" class="edge"><title>SUPERCOLUMN6664&#45;&gt;SUPERCOLUMN6668</title>
<path style="fill:none;stroke:black;" d="M548,-257C633,-252 788,-244 878,-238"/>
<polygon style="fill:black;stroke:black;" points="878.398,-241.478 888,-237 877.701,-234.512 878.398,-241.478"/>
</g>
<!-- COLUMN6666 -->
<g id="node54" class="node"><title>COLUMN6666</title>
<ellipse style="fill:none;stroke:black;" cx="1480" cy="-288" rx="141.756" ry="18"/>
<text text-anchor="middle" x="1480" y="-283.9" style="font-family:Times New Roman;font-size:14.00;">{RIESLING&#45;SORBET | 900}</text>
</g>
<!-- COLUMN6665&#45;&gt;COLUMN6666 -->
<g id="edge50" class="edge"><title>COLUMN6665&#45;&gt;COLUMN6666</title>
<path style="fill:none;stroke:black;" d="M1050,-288C1129,-288 1239,-288 1328,-288"/>
<polygon style="fill:black;stroke:black;" points="1328,-291.5 1338,-288 1328,-284.5 1328,-291.5"/>
</g>
<!-- COLUMN6667 -->
<g id="node56" class="node"><title>COLUMN6667</title>
<ellipse style="fill:none;stroke:black;" cx="2052" cy="-288" rx="93.1142" ry="18"/>
<text text-anchor="middle" x="2052" y="-283.9" style="font-family:Times New Roman;font-size:14.00;">{VANILLE | 100}</text>
</g>
<!-- COLUMN6666&#45;&gt;COLUMN6667 -->
<g id="edge52" class="edge"><title>COLUMN6666&#45;&gt;COLUMN6667</title>
<path style="fill:none;stroke:black;" d="M1622,-288C1723,-288 1857,-288 1949,-288"/>
<polygon style="fill:black;stroke:black;" points="1949,-291.5 1959,-288 1949,-284.5 1949,-291.5"/>
</g>
<!-- COLUMN6669 -->
<g id="node60" class="node"><title>COLUMN6669</title>
<ellipse style="fill:none;stroke:black;" cx="1480" cy="-234" rx="114.155" ry="18"/>
<text text-anchor="middle" x="1480" y="-229.9" style="font-family:Times New Roman;font-size:14.00;">{CHOCOLADE | 200}</text>
</g>
<!-- SUPERCOLUMN6668&#45;&gt;COLUMN6669 -->
<g id="edge56" class="edge"><title>SUPERCOLUMN6668&#45;&gt;COLUMN6669</title>
<path style="fill:none;stroke:black;" d="M1009,-234C1093,-234 1246,-234 1355,-234"/>
<polygon style="fill:black;stroke:black;" points="1355,-237.5 1365,-234 1355,-230.5 1355,-237.5"/>
</g>
<!-- COLUMN6670 -->
<g id="node62" class="node"><title>COLUMN6670</title>
<ellipse style="fill:none;stroke:black;" cx="2052" cy="-234" rx="141.756" ry="18"/>
<text text-anchor="middle" x="2052" y="-229.9" style="font-family:Times New Roman;font-size:14.00;">{RIESLING&#45;SORBET | 100}</text>
</g>
<!-- COLUMN6669&#45;&gt;COLUMN6670 -->
<g id="edge58" class="edge"><title>COLUMN6669&#45;&gt;COLUMN6670</title>
<path style="fill:none;stroke:black;" d="M1595,-234C1683,-234 1804,-234 1900,-234"/>
<polygon style="fill:black;stroke:black;" points="1900,-237.5 1910,-234 1900,-230.5 1900,-237.5"/>
</g>
<!-- COLUMN6671 -->
<g id="node64" class="node"><title>COLUMN6671</title>
<ellipse style="fill:none;stroke:black;" cx="2575" cy="-234" rx="93.1142" ry="18"/>
<text text-anchor="middle" x="2575" y="-229.9" style="font-family:Times New Roman;font-size:14.00;">{VANILLE | 100}</text>
</g>
<!-- COLUMN6670&#45;&gt;COLUMN6671 -->
<g id="edge60" class="edge"><title>COLUMN6670&#45;&gt;COLUMN6671</title>
<path style="fill:none;stroke:black;" d="M2194,-234C2282,-234 2393,-234 2472,-234"/>
<polygon style="fill:black;stroke:black;" points="2472,-237.5 2482,-234 2472,-230.5 2472,-237.5"/>
</g>
<!-- KEYSLICE6672 -->
<g id="node67" class="node"><title>KEYSLICE6672</title>
<ellipse style="fill:none;stroke:black;" cx="65" cy="-369" rx="32.157" ry="18"/>
<text text-anchor="middle" x="65" y="-364.9" style="font-family:Times New Roman;font-size:14.00;">cake</text>
</g>
<!-- SUPERCOLUMN6673 -->
<g id="node68" class="node"><title>SUPERCOLUMN6673</title>
<ellipse style="fill:none;stroke:black;" cx="488" cy="-369" rx="61.1496" ry="18"/>
<text text-anchor="middle" x="488" y="-364.9" style="font-family:Times New Roman;font-size:14.00;">20100701</text>
</g>
<!-- KEYSLICE6672&#45;&gt;SUPERCOLUMN6673 -->
<g id="edge70" class="edge"><title>KEYSLICE6672&#45;&gt;SUPERCOLUMN6673</title>
<path style="fill:none;stroke:black;" d="M98,-369C165,-369 324,-369 417,-369"/>
<polygon style="fill:black;stroke:black;" points="417,-372.5 427,-369 417,-365.5 417,-372.5"/>
</g>
<!-- COLUMN6674 -->
<g id="node69" class="node"><title>COLUMN6674</title>
<ellipse style="fill:none;stroke:black;" cx="948" cy="-396" rx="70.1831" ry="18"/>
<text text-anchor="middle" x="948" y="-391.9" style="font-family:Times New Roman;font-size:14.00;">{APFEL | 2}</text>
</g>
<!-- SUPERCOLUMN6673&#45;&gt;COLUMN6674 -->
<g id="edge64" class="edge"><title>SUPERCOLUMN6673&#45;&gt;COLUMN6674</title>
<path style="fill:none;stroke:black;" d="M548,-373C631,-378 779,-386 870,-391"/>
<polygon style="fill:black;stroke:black;" points="869.701,-394.488 880,-392 870.398,-387.522 869.701,-394.488"/>
</g>
<!-- SUPERCOLUMN6677 -->
<g id="node76" class="node"><title>SUPERCOLUMN6677</title>
<ellipse style="fill:none;stroke:black;" cx="948" cy="-342" rx="61.1496" ry="18"/>
<text text-anchor="middle" x="948" y="-337.9" style="font-family:Times New Roman;font-size:14.00;">20100702</text>
</g>
<!-- SUPERCOLUMN6673&#45;&gt;SUPERCOLUMN6677 -->
<g id="edge78" class="edge"><title>SUPERCOLUMN6673&#45;&gt;SUPERCOLUMN6677</title>
<path style="fill:none;stroke:black;" d="M548,-365C633,-360 788,-352 878,-346"/>
<polygon style="fill:black;stroke:black;" points="878.398,-349.478 888,-345 877.701,-342.512 878.398,-349.478"/>
</g>
<!-- COLUMN6675 -->
<g id="node71" class="node"><title>COLUMN6675</title>
<ellipse style="fill:none;stroke:black;" cx="1480" cy="-396" rx="97.9784" ry="18"/>
<text text-anchor="middle" x="1480" y="-391.9" style="font-family:Times New Roman;font-size:14.00;">{CHEESCAKE | 2}</text>
</g>
<!-- COLUMN6674&#45;&gt;COLUMN6675 -->
<g id="edge66" class="edge"><title>COLUMN6674&#45;&gt;COLUMN6675</title>
<path style="fill:none;stroke:black;" d="M1018,-396C1108,-396 1266,-396 1372,-396"/>
<polygon style="fill:black;stroke:black;" points="1372,-399.5 1382,-396 1372,-392.5 1372,-399.5"/>
</g>
<!-- COLUMN6676 -->
<g id="node73" class="node"><title>COLUMN6676</title>
<ellipse style="fill:none;stroke:black;" cx="2052" cy="-396" rx="87.0549" ry="18"/>
<text text-anchor="middle" x="2052" y="-391.9" style="font-family:Times New Roman;font-size:14.00;">{LINZER | 100}</text>
</g>
<!-- COLUMN6675&#45;&gt;COLUMN6676 -->
<g id="edge68" class="edge"><title>COLUMN6675&#45;&gt;COLUMN6676</title>
<path style="fill:none;stroke:black;" d="M1578,-396C1683,-396 1849,-396 1954,-396"/>
<polygon style="fill:black;stroke:black;" points="1954,-399.5 1964,-396 1954,-392.5 1954,-399.5"/>
</g>
<!-- COLUMN6678 -->
<g id="node77" class="node"><title>COLUMN6678</title>
<ellipse style="fill:none;stroke:black;" cx="1480" cy="-342" rx="75.9375" ry="18"/>
<text text-anchor="middle" x="1480" y="-337.9" style="font-family:Times New Roman;font-size:14.00;">{APFEL | 20}</text>
</g>
<!-- SUPERCOLUMN6677&#45;&gt;COLUMN6678 -->
<g id="edge72" class="edge"><title>SUPERCOLUMN6677&#45;&gt;COLUMN6678</title>
<path style="fill:none;stroke:black;" d="M1009,-342C1104,-342 1285,-342 1393,-342"/>
<polygon style="fill:black;stroke:black;" points="1393,-345.5 1403,-342 1393,-338.5 1393,-345.5"/>
</g>
<!-- COLUMN6679 -->
<g id="node79" class="node"><title>COLUMN6679</title>
<ellipse style="fill:none;stroke:black;" cx="2052" cy="-342" rx="109.986" ry="18"/>
<text text-anchor="middle" x="2052" y="-337.9" style="font-family:Times New Roman;font-size:14.00;">{CHEESCAKE | 100}</text>
</g>
<!-- COLUMN6678&#45;&gt;COLUMN6679 -->
<g id="edge74" class="edge"><title>COLUMN6678&#45;&gt;COLUMN6679</title>
<path style="fill:none;stroke:black;" d="M1557,-342C1652,-342 1818,-342 1931,-342"/>
<polygon style="fill:black;stroke:black;" points="1931,-345.5 1941,-342 1931,-338.5 1931,-345.5"/>
</g>
<!-- COLUMN6680 -->
<g id="node81" class="node"><title>COLUMN6680</title>
<ellipse style="fill:none;stroke:black;" cx="2575" cy="-342" rx="80.8024" ry="18"/>
<text text-anchor="middle" x="2575" y="-337.9" style="font-family:Times New Roman;font-size:14.00;">{LINZER | 10}</text>
</g>
<!-- COLUMN6679&#45;&gt;COLUMN6680 -->
<g id="edge76" class="edge"><title>COLUMN6679&#45;&gt;COLUMN6680</title>
<path style="fill:none;stroke:black;" d="M2163,-342C2258,-342 2394,-342 2483,-342"/>
<polygon style="fill:black;stroke:black;" points="2483,-345.5 2493,-342 2483,-338.5 2483,-345.5"/>
</g>
<!-- KEYSLICE6681 -->
<g id="node84" class="node"><title>KEYSLICE6681</title>
<ellipse style="fill:none;stroke:black;" cx="65" cy="-477" rx="64.1231" ry="18"/>
<text text-anchor="middle" x="65" y="-472.9" style="font-family:Times New Roman;font-size:14.00;">superuser1</text>
</g>
<!-- SUPERCOLUMN6682 -->
<g id="node85" class="node"><title>SUPERCOLUMN6682</title>
<ellipse style="fill:none;stroke:black;" cx="488" cy="-477" rx="62.0391" ry="18"/>
<text text-anchor="middle" x="488" y="-472.9" style="font-family:Times New Roman;font-size:14.00;">collection1</text>
</g>
<!-- KEYSLICE6681&#45;&gt;SUPERCOLUMN6682 -->
<g id="edge82" class="edge"><title>KEYSLICE6681&#45;&gt;SUPERCOLUMN6682</title>
<path style="fill:none;stroke:black;" d="M130,-477C207,-477 335,-477 415,-477"/>
<polygon style="fill:black;stroke:black;" points="415,-480.5 425,-477 415,-473.5 415,-480.5"/>
</g>
<!-- COLUMN6683 -->
<g id="node86" class="node"><title>COLUMN6683</title>
<ellipse style="fill:none;stroke:black;" cx="948" cy="-504" rx="57.8712" ry="18"/>
<text text-anchor="middle" x="948" y="-499.9" style="font-family:Times New Roman;font-size:14.00;">{first | 1}</text>
</g>
<!-- SUPERCOLUMN6682&#45;&gt;COLUMN6683 -->
<g id="edge80" class="edge"><title>SUPERCOLUMN6682&#45;&gt;COLUMN6683</title>
<path style="fill:none;stroke:black;" d="M550,-481C636,-486 791,-495 880,-500"/>
<polygon style="fill:black;stroke:black;" points="879.701,-503.488 890,-501 880.398,-496.522 879.701,-503.488"/>
</g>
<!-- SUPERCOLUMN6684 -->
<g id="node89" class="node"><title>SUPERCOLUMN6684</title>
<ellipse style="fill:none;stroke:black;" cx="948" cy="-450" rx="62.0391" ry="18"/>
<text text-anchor="middle" x="948" y="-445.9" style="font-family:Times New Roman;font-size:14.00;">collection2</text>
</g>
<!-- SUPERCOLUMN6682&#45;&gt;SUPERCOLUMN6684 -->
<g id="edge86" class="edge"><title>SUPERCOLUMN6682&#45;&gt;SUPERCOLUMN6684</title>
<path style="fill:none;stroke:black;" d="M550,-473C635,-468 787,-460 876,-455"/>
<polygon style="fill:black;stroke:black;" points="876.398,-458.478 886,-454 875.701,-451.512 876.398,-458.478"/>
</g>
<!-- COLUMN6685 -->
<g id="node90" class="node"><title>COLUMN6685</title>
<ellipse style="fill:none;stroke:black;" cx="1480" cy="-450" rx="128.053" ry="18"/>
<text text-anchor="middle" x="1480" y="-445.9" style="font-family:Times New Roman;font-size:14.00;">{second | 0123456789}</text>
</g>
<!-- SUPERCOLUMN6684&#45;&gt;COLUMN6685 -->
<g id="edge84" class="edge"><title>SUPERCOLUMN6684&#45;&gt;COLUMN6685</title>
<path style="fill:none;stroke:black;" d="M1011,-450C1091,-450 1234,-450 1341,-450"/>
<polygon style="fill:black;stroke:black;" points="1341,-453.5 1351,-450 1341,-446.5 1341,-453.5"/>
</g>
</g>
</svg>
